<svg width="528" height="102" viewBox="0 0 176 34" fill="none" xmlns="http://www.w3.org/2000/svg">
<path d="M34.32 0.399998H40.56C41.424 0.399998 41.472 1.216 41.04 1.648L26.352 16.768L41.712 32.752C42.144 33.184 42.096 34 41.232 34H34.656C33.888 34 33.504 33.808 33.12 33.328L21.36 21.088L9.36 33.328C8.928 33.808 8.592 34 7.776 34H1.536C0.72 34 0.672 33.184 1.104 32.752L16.848 16.384L2.688 1.648C2.256 1.216 2.256 0.399998 3.12 0.399998H9.696C10.464 0.399998 10.848 0.591998 11.232 1.072L21.84 12.064L32.784 1.072C33.168 0.591998 33.552 0.399998 34.32 0.399998ZM62.3209 0.399998H83.9689C84.6889 0.399998 85.0249 0.735999 85.0249 1.456V6.16C85.0249 6.88 84.6889 7.216 83.9689 7.216H62.6089C57.6649 7.216 56.2249 8.704 56.2249 13.792V20.608C56.2249 25.696 57.6649 27.184 62.6089 27.184H83.9689C84.6889 27.184 85.0249 27.52 85.0249 28.24V32.944C85.0249 33.664 84.6889 34 83.9689 34H62.3209C52.6249 34 48.9289 30.544 48.9289 21.328V13.072C48.9289 3.856 52.6249 0.399998 62.3209 0.399998ZM93.9799 0.399998H131.468C132.188 0.399998 132.572 0.735999 132.572 1.456V6.16C132.572 6.88 132.188 7.216 131.468 7.216H116.396V32.944C116.396 33.664 116.06 34 115.34 34H110.108C109.388 34 109.052 33.664 109.052 32.944V7.216H93.9799C93.2599 7.216 92.8759 6.88 92.8759 6.16V1.456C92.8759 0.735999 93.2599 0.399998 93.9799 0.399998ZM153.765 0.399998H174.885C175.605 0.399998 175.989 0.735999 175.989 1.456V6.016C175.989 6.736 175.605 7.072 174.885 7.072H153.909C148.917 7.072 147.525 8.56 147.525 13.6V14.08H174.645C175.365 14.08 175.701 14.416 175.701 15.136V18.928C175.701 19.648 175.365 19.984 174.645 19.984H147.525V20.8C147.525 25.84 148.917 27.328 153.909 27.328H174.885C175.605 27.328 175.989 27.664 175.989 28.384V32.944C175.989 33.664 175.605 34 174.885 34H153.765C144.069 34 140.373 30.544 140.373 21.328V13.072C140.373 3.856 144.069 0.399998 153.765 0.399998Z" fill="black"/>
</svg>
